<?xml version="1.0" encoding="utf-8"?>
<!-- Generator: Adobe Illustrator 21.1.0, SVG Export Plug-In . SVG Version: 6.00 Build 0)  -->
<svg version="1.1" id="Camada_1" xmlns="http://www.w3.org/2000/svg" xmlns:xlink="http://www.w3.org/1999/xlink" x="0px" y="0px"
	 viewBox="0 0 563 455" style="enable-background:new 0 0 563 455;" xml:space="preserve">
<style type="text/css">
	.st0{fill:none;stroke:#36A0B0;stroke-width:2.6833;stroke-linecap:round;stroke-linejoin:round;stroke-miterlimit:10;}
	.st1{fill:none;stroke:#36A0B0;stroke-width:4.174;stroke-linecap:round;stroke-linejoin:round;stroke-miterlimit:10;}
	.st2{fill:#36A0B0;}
	.st3{fill:#11EAA5;}
	.st4{fill:#45CFD9;}
	.st5{fill:#139486;}
</style>
<g>
	<polygon class="st0" points="69.5,184.1 96.4,157.3 103.7,194.1 82.1,225.3 	"/>
	<polyline class="st0" points="96.4,157.3 128.6,166.6 103.7,194.1 130.6,229.6 82.1,225.3 108.5,257.7 51.3,258.7 52.5,221.3 
		53,220.2 69.5,184.1 	"/>
	<line class="st1" x1="80.1" y1="225.3" x2="53" y2="220.2"/>
	<line class="st0" x1="82.9" y1="226.3" x2="51.3" y2="258.7"/>
	<polygon class="st0" points="108.5,257.7 130.6,229.6 139.6,269.4 	"/>
	<path class="st0" d="M128.6,166.6l22.9,28.1l-47.8-0.7c0,0-33.6-7.9-33.9-8.9c-0.3-1-0.3-1-0.3-1"/>
	<polyline class="st0" points="139.6,269.4 157,236.7 151.5,194.8 129.1,229.6 	"/>
	<line class="st0" x1="157" y1="236.7" x2="130.6" y2="229.6"/>
	<circle class="st2" cx="53.7" cy="259" r="7.3"/>
	<circle class="st2" cx="53" cy="220.2" r="7.3"/>
	<circle class="st2" cx="130.6" cy="229.6" r="7.3"/>
	<circle class="st2" cx="103.7" cy="192.5" r="7.3"/>
	<circle class="st2" cx="82.9" cy="225.3" r="7.3"/>
	<circle class="st2" cx="69.5" cy="185.2" r="6.1"/>
	<circle class="st2" cx="139.6" cy="268.1" r="7.3"/>
	<circle class="st2" cx="149.7" cy="195.2" r="6"/>
	<circle class="st2" cx="155.7" cy="236.7" r="6"/>
	<circle class="st3" cx="81.5" cy="223.9" r="6"/>
	<circle class="st3" cx="129.1" cy="166.6" r="6"/>
	<circle class="st4" cx="68.5" cy="185.2" r="6"/>
	<circle class="st4" cx="155.1" cy="234.9" r="6"/>
	<circle class="st4" cx="108.5" cy="256.9" r="6"/>
	<circle class="st2" cx="96.4" cy="158.3" r="4.5"/>
	<circle class="st5" cx="55.8" cy="256.9" r="7.3"/>
	<circle class="st5" cx="139.6" cy="266.3" r="7.3"/>
	<circle class="st5" cx="102.8" cy="193" r="7.3"/>
</g>
<g>
	<g>
		<path class="st2" d="M196.6,187.8h18.5c5.4,0,8,2.5,8,7.5v13.6c0,3-1.1,4.8-3.4,5.3c2.3,0.6,3.4,2.2,3.4,5v14.6c0,5-2.7,7.5-8,7.5
			h-18.5V187.8z M215.4,208.6v-12.2c0-1-0.2-1.7-0.5-2c-0.3-0.3-1-0.5-2-0.5h-8.5V211h8.5c1,0,1.7-0.2,2-0.5
			C215.2,210.3,215.4,209.6,215.4,208.6z M215.4,232.7v-13.2c0-1-0.2-1.7-0.5-2c-0.3-0.3-1-0.5-2-0.5h-8.5v18.1h8.5
			c1,0,1.7-0.2,2-0.5C215.2,234.4,215.4,233.8,215.4,232.7z"/>
		<path class="st2" d="M239.2,235h13.2v6.2h-20.9v-53.5h7.7V235z"/>
		<path class="st2" d="M276.9,241.3l-2.1-12.4h-11.3l-2,12.4h-7.7l9.5-53.5h11.2l10.2,53.5H276.9z M264.4,222.7h9.3l-4.9-28.2
			L264.4,222.7z"/>
		<path class="st2" d="M290.1,241.3v-53.5h7.7v53.5H290.1z M317.6,187.8l-11.3,26.8l11.2,26.6h-8.4l-10.8-26.6l11-26.8H317.6z"/>
		<path class="st2" d="M335.5,177.8h7.4v73.5h-7.4V177.8z"/>
		<path class="st2" d="M379.9,232.6v-13.1c0-1-0.2-1.7-0.5-2c-0.3-0.3-1-0.5-2-0.5h-6.3c-5.2,0-7.8-2.5-7.8-7.6v-14.1
			c0-5,2.6-7.5,7.9-7.5h8.4c5.3,0,7.9,2.5,7.9,7.5v7.9h-7.8v-6.7c0-1-0.2-1.7-0.5-2s-1-0.5-2-0.5h-3.6c-1,0-1.7,0.2-2,0.5
			c-0.3,0.3-0.5,1-0.5,2v11.9c0,1,0.2,1.7,0.5,2c0.3,0.3,1,0.5,2,0.5h6.2c5.2,0,7.9,2.5,7.9,7.5v15.4c0,5-2.7,7.5-8,7.5h-8.3
			c-5.3,0-7.9-2.5-7.9-7.5v-7.9h7.8v6.7c0,1,0.2,1.7,0.5,2c0.3,0.3,1,0.5,2,0.5h3.6c1,0,1.7-0.2,2-0.5
			C379.7,234.3,379.9,233.6,379.9,232.6z"/>
		<path class="st2" d="M410.5,241.3h-7.8v-16.9l-11.4-36.6h7.9l7.4,29.5l7-29.5h7.9l-10.9,36.6V241.3z"/>
		<path class="st2" d="M441.6,232.6v-13.1c0-1-0.2-1.7-0.5-2c-0.3-0.3-1-0.5-2-0.5h-6.3c-5.2,0-7.8-2.5-7.8-7.6v-14.1
			c0-5,2.6-7.5,7.9-7.5h8.4c5.3,0,7.9,2.5,7.9,7.5v7.9h-7.8v-6.7c0-1-0.2-1.7-0.5-2c-0.3-0.3-1-0.5-2-0.5h-3.6c-1,0-1.7,0.2-2,0.5
			c-0.3,0.3-0.5,1-0.5,2v11.9c0,1,0.2,1.7,0.5,2c0.3,0.3,1,0.5,2,0.5h6.2c5.2,0,7.9,2.5,7.9,7.5v15.4c0,5-2.7,7.5-8,7.5h-8.3
			c-5.3,0-7.9-2.5-7.9-7.5v-7.9h7.8v6.7c0,1,0.2,1.7,0.5,2c0.3,0.3,1,0.5,2,0.5h3.6c1,0,1.7-0.2,2-0.5
			C441.4,234.3,441.6,233.6,441.6,232.6z"/>
		<path class="st2" d="M478.6,187.8v6.2h-9v47.2H462V194h-9v-6.2H478.6z"/>
		<path class="st2" d="M491.3,235h15.5v6.2h-23.2v-53.5h22.6v6.2h-14.9v16.5h12.3v6.2h-12.3V235z"/>
		<path class="st2" d="M519.6,241.3h-6.7v-53.5h8.5l9.1,33.1l9.1-33.1h8.5v53.5h-6.7v-39.1l-7.3,27.5h-7l-7.3-27.4V241.3z"/>
	</g>
</g>
</svg>
