<?xml version="1.0" encoding="utf-8"?>
<!-- Generator: Adobe Illustrator 21.1.0, SVG Export Plug-In . SVG Version: 6.00 Build 0)  -->
<svg version="1.1" id="Camada_1" xmlns="http://www.w3.org/2000/svg" xmlns:xlink="http://www.w3.org/1999/xlink" x="0px" y="0px"
	 viewBox="0 0 563 455" style="enable-background:new 0 0 563 455;" xml:space="preserve">
<style type="text/css">
	.st0{fill:none;stroke:#36A0B0;stroke-width:6.3785;stroke-linecap:round;stroke-linejoin:round;stroke-miterlimit:10;}
	.st1{fill:none;stroke:#36A0B0;stroke-width:9.9222;stroke-linecap:round;stroke-linejoin:round;stroke-miterlimit:10;}
	.st2{fill:#36A0B0;}
	.st3{fill:#11EAA5;}
	.st4{fill:#45CFD9;}
	.st5{fill:#139486;}
</style>
<g>
	<polygon class="st0" points="191.6,216.8 255.4,153 272.9,240.4 221.4,314.6 	"/>
	<polyline class="st0" points="255.4,153 331.9,175.2 272.9,240.4 336.6,325 221.4,314.6 284.2,391.6 148.1,394 151,305.2 
		152.2,302.5 191.6,216.8 	"/>
	<line class="st1" x1="216.6" y1="314.6" x2="152.2" y2="302.5"/>
	<line class="st0" x1="223.3" y1="316.9" x2="148.1" y2="394"/>
	<polygon class="st0" points="284.2,391.6 336.6,325 358,419.6 	"/>
	<path class="st0" d="M331.9,175.2l54.5,66.9l-113.5-1.7c0,0-79.8-18.8-80.5-21.2s-0.7-2.4-0.7-2.4"/>
	<polyline class="st0" points="358,419.6 399.5,341.7 386.4,242.1 333.2,325 	"/>
	<line class="st0" x1="399.5" y1="341.7" x2="336.6" y2="325"/>
	<circle class="st2" cx="153.9" cy="394.8" r="17.4"/>
	<circle class="st2" cx="152.2" cy="302.5" r="17.4"/>
	<circle class="st2" cx="336.6" cy="325" r="17.4"/>
	<circle class="st2" cx="272.9" cy="236.7" r="17.4"/>
	<circle class="st2" cx="223.3" cy="314.6" r="17.4"/>
	<circle class="st2" cx="191.6" cy="219.4" r="14.4"/>
	<circle class="st2" cx="358" cy="416.4" r="17.4"/>
	<circle class="st2" cx="382.2" cy="243.2" r="14.2"/>
	<circle class="st2" cx="396.4" cy="341.7" r="14.2"/>
	<circle class="st3" cx="220.1" cy="311.4" r="14.2"/>
	<circle class="st3" cx="333.2" cy="175.2" r="14.2"/>
	<circle class="st4" cx="189" cy="219.4" r="14.2"/>
	<circle class="st4" cx="395" cy="337.6" r="14.2"/>
	<circle class="st4" cx="284.2" cy="389.7" r="14.2"/>
	<circle class="st2" cx="255.5" cy="155.4" r="10.8"/>
	<circle class="st5" cx="158.9" cy="389.7" r="17.4"/>
	<circle class="st5" cx="358" cy="412.2" r="17.4"/>
	<circle class="st5" cx="270.7" cy="237.8" r="17.4"/>
</g>
<g>
	<g>
		<path class="st2" d="M126.4,73.7h15.4c4.5,0,6.7,2.1,6.7,6.3v11.3c0,2.5-0.9,4-2.8,4.4c1.9,0.5,2.8,1.9,2.8,4.1V112
			c0,4.2-2.2,6.3-6.7,6.3h-15.4V73.7z M142,91V80.8c0-0.9-0.1-1.4-0.4-1.7c-0.3-0.3-0.9-0.4-1.7-0.4h-7.1v14.3h7.1
			c0.9,0,1.4-0.1,1.7-0.4C141.9,92.4,142,91.9,142,91z M142,111.2v-11c0-0.9-0.1-1.4-0.4-1.7c-0.3-0.3-0.9-0.4-1.7-0.4h-7.1v15.1
			h7.1c0.9,0,1.4-0.1,1.7-0.4C141.9,112.6,142,112,142,111.2z"/>
		<path class="st2" d="M161.9,113.1h11v5.2h-17.4V73.7h6.4V113.1z"/>
		<path class="st2" d="M193.2,118.3l-1.8-10.3h-9.4l-1.6,10.3H174l7.9-44.5h9.3l8.5,44.5H193.2z M182.8,102.8h7.8l-4.1-23.5
			L182.8,102.8z"/>
		<path class="st2" d="M204.3,118.3V73.7h6.4v44.5H204.3z M227.2,73.7l-9.4,22.3l9.3,22.2h-7l-9-22.2l9.2-22.3H227.2z"/>
		<path class="st2" d="M242,65.4h6.2v61.3H242V65.4z"/>
		<path class="st2" d="M279,111v-10.9c0-0.9-0.1-1.4-0.4-1.7c-0.3-0.3-0.8-0.4-1.7-0.4h-5.3c-4.3,0-6.5-2.1-6.5-6.3V80
			c0-4.2,2.2-6.3,6.6-6.3h7c4.4,0,6.6,2.1,6.6,6.3v6.5H279V81c0-0.9-0.1-1.4-0.4-1.7c-0.3-0.3-0.9-0.4-1.7-0.4h-3
			c-0.9,0-1.4,0.1-1.7,0.4c-0.3,0.3-0.4,0.8-0.4,1.7v9.9c0,0.9,0.1,1.4,0.4,1.7s0.9,0.4,1.7,0.4h5.2c4.4,0,6.5,2.1,6.5,6.3V112
			c0,4.2-2.2,6.3-6.7,6.3H272c-4.4,0-6.6-2.1-6.6-6.3v-6.5h6.5v5.5c0,0.9,0.1,1.4,0.4,1.7c0.3,0.3,0.9,0.4,1.7,0.4h3
			c0.9,0,1.4-0.1,1.7-0.4C278.9,112.4,279,111.9,279,111z"/>
		<path class="st2" d="M304.5,118.3H298v-14.1l-9.5-30.5h6.5l6.2,24.5l5.8-24.5h6.5l-9.1,30.5V118.3z"/>
		<path class="st2" d="M330.4,111v-10.9c0-0.9-0.1-1.4-0.4-1.7c-0.3-0.3-0.8-0.4-1.7-0.4h-5.3c-4.3,0-6.5-2.1-6.5-6.3V80
			c0-4.2,2.2-6.3,6.6-6.3h7c4.4,0,6.6,2.1,6.6,6.3v6.5h-6.5V81c0-0.9-0.1-1.4-0.4-1.7c-0.3-0.3-0.9-0.4-1.7-0.4h-3
			c-0.9,0-1.4,0.1-1.7,0.4c-0.3,0.3-0.4,0.8-0.4,1.7v9.9c0,0.9,0.1,1.4,0.4,1.7s0.9,0.4,1.7,0.4h5.2c4.4,0,6.5,2.1,6.5,6.3V112
			c0,4.2-2.2,6.3-6.7,6.3h-6.9c-4.4,0-6.6-2.1-6.6-6.3v-6.5h6.5v5.5c0,0.9,0.1,1.4,0.4,1.7c0.3,0.3,0.9,0.4,1.7,0.4h3
			c0.9,0,1.4-0.1,1.7-0.4C330.3,112.4,330.4,111.9,330.4,111z"/>
		<path class="st2" d="M361.3,73.7v5.2h-7.5v39.3h-6.4V78.9h-7.5v-5.2H361.3z"/>
		<path class="st2" d="M371.8,113.1h12.9v5.2h-19.4V73.7h18.9v5.2h-12.4v13.7h10.2v5.2h-10.2V113.1z"/>
		<path class="st2" d="M395.4,118.3h-5.6V73.7h7l7.6,27.6l7.6-27.6h7v44.5h-5.6V85.7l-6.1,22.9h-5.8l-6.1-22.8V118.3z"/>
	</g>
</g>
</svg>
