<?xml version="1.0" encoding="utf-8"?>
<!-- Generator: Adobe Illustrator 21.1.0, SVG Export Plug-In . SVG Version: 6.00 Build 0)  -->
<svg version="1.1" id="Camada_1" xmlns="http://www.w3.org/2000/svg" xmlns:xlink="http://www.w3.org/1999/xlink" x="0px" y="0px"
	 viewBox="0 0 563 455" style="enable-background:new 0 0 563 455;" xml:space="preserve">
<style type="text/css">
	.st0{fill:none;stroke:#36A0B0;stroke-width:3.1377;stroke-linecap:round;stroke-linejoin:round;stroke-miterlimit:10;}
	.st1{fill:none;stroke:#36A0B0;stroke-width:4.8809;stroke-linecap:round;stroke-linejoin:round;stroke-miterlimit:10;}
	.st2{fill:#36A0B0;}
	.st3{fill:#11EAA5;}
	.st4{fill:#45CFD9;}
	.st5{fill:#139486;}
</style>
<g>
	<polygon class="st0" points="426.6,198.6 458,167.2 466.6,210.2 441.2,246.7 	"/>
	<polyline class="st0" points="458,167.2 495.6,178.2 466.6,210.2 498,251.8 441.2,246.7 472.2,284.6 405.2,285.8 406.6,242.1 
		407.2,240.8 426.6,198.6 	"/>
	<line class="st1" x1="438.9" y1="246.7" x2="407.2" y2="240.8"/>
	<line class="st0" x1="442.2" y1="247.9" x2="405.2" y2="285.8"/>
	<polygon class="st0" points="472.2,284.6 498,251.8 508.5,298.4 	"/>
	<path class="st0" d="M495.6,178.2l26.8,32.9l-55.8-0.8c0,0-39.3-9.2-39.6-10.4c-0.4-1.2-0.4-1.2-0.4-1.2"/>
	<polyline class="st0" points="508.5,298.4 528.9,260 522.4,211 496.2,251.8 	"/>
	<line class="st0" x1="528.9" y1="260" x2="498" y2="251.8"/>
	<circle class="st2" cx="408.1" cy="286.2" r="8.5"/>
	<circle class="st2" cx="407.2" cy="240.8" r="8.5"/>
	<circle class="st2" cx="498" cy="251.8" r="8.5"/>
	<circle class="st2" cx="466.6" cy="208.4" r="8.5"/>
	<circle class="st2" cx="442.2" cy="246.7" r="8.5"/>
	<circle class="st2" cx="426.6" cy="199.9" r="7.1"/>
	<circle class="st2" cx="508.5" cy="296.8" r="8.5"/>
	<circle class="st2" cx="520.4" cy="211.6" r="7"/>
	<circle class="st2" cx="527.4" cy="260" r="7"/>
	<circle class="st3" cx="440.6" cy="245.2" r="7"/>
	<circle class="st3" cx="496.2" cy="178.2" r="7"/>
	<circle class="st4" cx="425.3" cy="199.9" r="7"/>
	<circle class="st4" cx="526.7" cy="258" r="7"/>
	<circle class="st4" cx="472.2" cy="283.6" r="7"/>
	<circle class="st2" cx="458" cy="168.4" r="5.3"/>
	<circle class="st5" cx="410.5" cy="283.6" r="8.5"/>
	<circle class="st5" cx="508.5" cy="294.7" r="8.5"/>
	<circle class="st5" cx="465.5" cy="209" r="8.5"/>
</g>
<g>
	<g>
		<path class="st2" d="M34.6,209H52c5,0,7.5,2.4,7.5,7.1v12.8c0,2.8-1.1,4.5-3.2,5c2.1,0.5,3.2,2.1,3.2,4.7v13.7
			c0,4.7-2.5,7.1-7.5,7.1H34.6V209z M52.3,228.6v-11.5c0-1-0.2-1.6-0.5-1.9c-0.3-0.3-1-0.4-1.9-0.4h-8v16.1h8c1,0,1.6-0.1,1.9-0.4
			C52.1,230.2,52.3,229.5,52.3,228.6z M52.3,251.3v-12.4c0-1-0.2-1.6-0.5-1.9c-0.3-0.3-1-0.4-1.9-0.4h-8v17h8c1,0,1.6-0.1,1.9-0.4
			C52.1,252.9,52.3,252.3,52.3,251.3z"/>
		<path class="st2" d="M74.7,253.5h12.4v5.9H67.4V209h7.2V253.5z"/>
		<path class="st2" d="M110.1,259.3l-2-11.6H97.5l-1.8,11.6h-7.2l8.9-50.3h10.5l9.6,50.3H110.1z M98.4,241.8h8.8l-4.6-26.5
			L98.4,241.8z"/>
		<path class="st2" d="M122.5,259.3V209h7.2v50.3H122.5z M148.4,209l-10.6,25.2l10.5,25.1h-7.9l-10.2-25.1l10.4-25.2H148.4z"/>
		<path class="st2" d="M165.2,199.7h7v69.2h-7V199.7z"/>
		<path class="st2" d="M206.9,251.1v-12.3c0-1-0.1-1.6-0.4-1.9c-0.3-0.3-0.9-0.4-1.9-0.4h-5.9c-4.9,0-7.3-2.4-7.3-7.1v-13.3
			c0-4.7,2.5-7.1,7.5-7.1h7.9c5,0,7.5,2.4,7.5,7.1v7.4h-7.3v-6.3c0-1-0.2-1.6-0.5-1.9c-0.3-0.3-1-0.4-1.9-0.4h-3.4
			c-1,0-1.6,0.2-1.9,0.4c-0.3,0.3-0.5,0.9-0.5,1.9v11.2c0,1,0.2,1.6,0.5,1.9c0.3,0.3,1,0.4,1.9,0.4h5.9c4.9,0,7.4,2.4,7.4,7.1v14.5
			c0,4.7-2.5,7.1-7.5,7.1H199c-5,0-7.5-2.4-7.5-7.1v-7.4h7.3v6.3c0,1,0.2,1.6,0.5,1.9c0.3,0.3,1,0.4,1.9,0.4h3.4
			c1,0,1.6-0.1,1.9-0.4C206.8,252.7,206.9,252.1,206.9,251.1z"/>
		<path class="st2" d="M235.7,259.3h-7.3v-15.9L217.6,209h7.4l7,27.7l6.6-27.7h7.4l-10.3,34.4V259.3z"/>
		<path class="st2" d="M264.9,251.1v-12.3c0-1-0.1-1.6-0.4-1.9c-0.3-0.3-0.9-0.4-1.9-0.4h-5.9c-4.9,0-7.3-2.4-7.3-7.1v-13.3
			c0-4.7,2.5-7.1,7.5-7.1h7.9c5,0,7.5,2.4,7.5,7.1v7.4h-7.3v-6.3c0-1-0.2-1.6-0.5-1.9c-0.3-0.3-1-0.4-1.9-0.4h-3.4
			c-1,0-1.6,0.2-1.9,0.4c-0.3,0.3-0.5,0.9-0.5,1.9v11.2c0,1,0.2,1.6,0.5,1.9s1,0.4,1.9,0.4h5.9c4.9,0,7.4,2.4,7.4,7.1v14.5
			c0,4.7-2.5,7.1-7.5,7.1H257c-5,0-7.5-2.4-7.5-7.1v-7.4h7.3v6.3c0,1,0.2,1.6,0.5,1.9c0.3,0.3,1,0.4,1.9,0.4h3.4
			c1,0,1.6-0.1,1.9-0.4C264.8,252.7,264.9,252.1,264.9,251.1z"/>
		<path class="st2" d="M299.8,209v5.9h-8.4v44.4h-7.2v-44.4h-8.4V209H299.8z"/>
		<path class="st2" d="M311.7,253.5h14.5v5.9h-21.8V209h21.3v5.9h-14v15.5h11.6v5.9h-11.6V253.5z"/>
		<path class="st2" d="M338.3,259.3h-6.3V209h8l8.6,31.2L357,209h8v50.3h-6.3v-36.8l-6.9,25.9h-6.6l-6.9-25.8V259.3z"/>
	</g>
</g>
</svg>
