<?xml version="1.0" encoding="utf-8"?>
<!-- Generator: Adobe Illustrator 21.1.0, SVG Export Plug-In . SVG Version: 6.00 Build 0)  -->
<svg version="1.1" id="Camada_1" xmlns="http://www.w3.org/2000/svg" xmlns:xlink="http://www.w3.org/1999/xlink" x="0px" y="0px"
	 viewBox="0 0 563 455" style="enable-background:new 0 0 563 455;" xml:space="preserve">
<style type="text/css">
	.st0{fill:none;stroke:#36A0B0;stroke-width:7.8322;stroke-linecap:round;stroke-linejoin:round;stroke-miterlimit:10;}
	.st1{fill:none;stroke:#36A0B0;stroke-width:12.1834;stroke-linecap:round;stroke-linejoin:round;stroke-miterlimit:10;}
	.st2{fill:#36A0B0;}
	.st3{fill:#11EAA5;}
	.st4{fill:#45CFD9;}
	.st5{fill:#139486;}
</style>
<g>
	<polygon class="st0" points="181.9,138.6 260.2,60.3 281.7,167.6 218.5,258.7 	"/>
	<polyline class="st0" points="260.2,60.3 354.2,87.5 281.7,167.6 360,271.4 218.5,258.7 295.6,353.3 128.5,356.2 132,247.1 
		133.5,243.8 181.9,138.6 	"/>
	<line class="st1" x1="212.7" y1="258.7" x2="133.5" y2="243.8"/>
	<line class="st0" x1="220.8" y1="261.5" x2="128.5" y2="356.2"/>
	<polygon class="st0" points="295.6,353.3 360,271.4 386.3,387.6 	"/>
	<path class="st0" d="M354.2,87.5l66.9,82.1l-139.4-2c0,0-98-23.1-98.9-26c-0.9-3-0.9-3-0.9-3"/>
	<polyline class="st0" points="386.3,387.6 437.2,291.9 421.1,169.6 355.7,271.4 	"/>
	<line class="st0" x1="437.2" y1="291.9" x2="360" y2="271.4"/>
	<circle class="st2" cx="135.6" cy="357.2" r="21.3"/>
	<circle class="st2" cx="133.5" cy="243.8" r="21.3"/>
	<circle class="st2" cx="360" cy="271.4" r="21.3"/>
	<circle class="st2" cx="281.7" cy="163.1" r="21.3"/>
	<circle class="st2" cx="220.8" cy="258.7" r="21.3"/>
	<circle class="st2" cx="181.9" cy="141.7" r="17.7"/>
	<circle class="st2" cx="386.3" cy="383.7" r="21.3"/>
	<circle class="st2" cx="416" cy="170.9" r="17.4"/>
	<circle class="st2" cx="433.4" cy="291.9" r="17.4"/>
	<circle class="st3" cx="216.9" cy="254.8" r="17.4"/>
	<circle class="st3" cx="355.7" cy="87.5" r="17.4"/>
	<circle class="st4" cx="178.7" cy="141.7" r="17.4"/>
	<circle class="st4" cx="431.7" cy="286.9" r="17.4"/>
	<circle class="st4" cx="295.6" cy="350.9" r="17.4"/>
	<circle class="st2" cx="260.4" cy="63.2" r="13.3"/>
	<circle class="st5" cx="141.7" cy="350.9" r="21.3"/>
	<circle class="st5" cx="386.3" cy="378.5" r="21.3"/>
	<circle class="st5" cx="279.1" cy="164.4" r="21.3"/>
</g>
</svg>
